<svg xmlns="http://www.w3.org/2000/svg" viewBox="0 0 1080 1080" xmlns:v="https://vecta.io/nano"><path d="M363.5 1016.1c-83 83-217.7 83-300.7 0l-.5-.5c-83-83-83-217.7 0-300.7l176.5-176.5L62.3 361.9c-83-83-83-217.7 0-300.7l.5-.5c83.1-83 217.7-83 300.7 0l118.4 118.4-113.5 113.5L250 174.1c-20.9-20.9-54.7-21.1-75.4-.3-20.7 20.7-20.6 54.5.3 75.4l176.5 176.5 365-365c83-83 217.7-83 300.7 0l.5.5c83 83.1 83 217.7 0 300.7L898.1 481.5 784.6 368l119.7-119.7c20.9-20.9 21-54.7.3-75.4s-54.5-20.6-75.4.3l-365 365.2h0L351.5 651.1 172.9 829.7c-20.9 20.9-21.1 54.7-.3 75.4 20.7 20.7 54.5 20.6 75.4-.3l119-119.1 113.5 113.5-117 116.9h0zm643.4-9.8l-.5.5c-81.4 81.4-213.4 81.4-294.9 0L406.1 701.4l110.7-110.3 307.3 307.3c20.5 20.5 53.6 20.6 73.9.3s20.2-53.4-.3-73.9L711.5 638.5l111.3-111.3L1007 711.4c81.4 81.5 81.4 213.5-.1 294.9h0z" fill="#004d7e"/></svg>